<?xml version="1.0" encoding="UTF-8" standalone="no"?>
<!-- Created with Inkscape (http://www.inkscape.org/) -->

<svg
   xmlns:dc="http://purl.org/dc/elements/1.1/"
   xmlns:cc="http://creativecommons.org/ns#"
   xmlns:rdf="http://www.w3.org/1999/02/22-rdf-syntax-ns#"
   xmlns:svg="http://www.w3.org/2000/svg"
   xmlns="http://www.w3.org/2000/svg"
   xmlns:xlink="http://www.w3.org/1999/xlink"
   xmlns:sodipodi="http://sodipodi.sourceforge.net/DTD/sodipodi-0.dtd"
   xmlns:inkscape="http://www.inkscape.org/namespaces/inkscape"
   version="1.0"
   width="96"
   height="96"
   id="svg2408"
   inkscape:version="0.48+devel r"
   sodipodi:docname="application-pdf.svg">
  <sodipodi:namedview
     pagecolor="#ffffff"
     bordercolor="#666666"
     borderopacity="1"
     objecttolerance="10"
     gridtolerance="10"
     guidetolerance="10"
     inkscape:pageopacity="0"
     inkscape:pageshadow="2"
     inkscape:window-width="640"
     inkscape:window-height="480"
     id="namedview63"
     showgrid="false"
     inkscape:zoom="1.5210162"
     inkscape:cx="37.755977"
     inkscape:cy="60.211697"
     inkscape:current-layer="svg2408"
     inkscape:snap-bbox="true"
     inkscape:snap-bbox-midpoints="false" />
  <defs
     id="defs2410">
    <linearGradient
       id="linearGradient3174">
      <stop
         id="stop3176"
         style="stop-color:#c30000;stop-opacity:1"
         offset="0" />
      <stop
         id="stop3178"
         style="stop-color:#f12300;stop-opacity:1"
         offset="1" />
    </linearGradient>
    <linearGradient
       x1="45.447727"
       y1="92.539597"
       x2="45.447727"
       y2="7.0165396"
       id="ButtonShadow"
       gradientUnits="userSpaceOnUse"
       gradientTransform="scale(1.0058652,0.994169)">
      <stop
         id="stop3750"
         style="stop-color:#000000;stop-opacity:1"
         offset="0" />
      <stop
         id="stop3752"
         style="stop-color:#000000;stop-opacity:0.58823532"
         offset="1" />
    </linearGradient>
    <linearGradient
       id="linearGradient3737">
      <stop
         id="stop3739"
         style="stop-color:#ffffff;stop-opacity:1"
         offset="0" />
      <stop
         id="stop3741"
         style="stop-color:#ffffff;stop-opacity:0"
         offset="1" />
    </linearGradient>
    <linearGradient
       id="linearGradient3700">
      <stop
         id="stop3702"
         style="stop-color:#e6e6e6;stop-opacity:1"
         offset="0" />
      <stop
         id="stop3704"
         style="stop-color:#f5f5f5;stop-opacity:1"
         offset="1" />
    </linearGradient>
    <linearGradient
       x1="48"
       y1="90"
       x2="48"
       y2="5.9877172"
       id="linearGradient3706"
       xlink:href="#linearGradient3700"
       gradientUnits="userSpaceOnUse" />
    <filter
       color-interpolation-filters="sRGB"
       id="filter3174">
      <feGaussianBlur
         stdDeviation="1.71"
         id="feGaussianBlur3176" />
    </filter>
    <linearGradient
       x1="36.357143"
       y1="6"
       x2="36.357143"
       y2="63.893143"
       id="linearGradient3188"
       xlink:href="#linearGradient3737"
       gradientUnits="userSpaceOnUse" />
    <linearGradient
       x1="56.633896"
       y1="89.164001"
       x2="56.633896"
       y2="6.398416"
       id="linearGradient3203"
       xlink:href="#linearGradient3174"
       gradientUnits="userSpaceOnUse" />
    <linearGradient
       x1="45.447727"
       y1="92.539597"
       x2="45.447727"
       y2="7.0165396"
       id="ButtonShadow-0"
       gradientUnits="userSpaceOnUse"
       gradientTransform="matrix(1.0058652,0,0,0.994169,100,0)">
      <stop
         id="stop3750-8"
         style="stop-color:#000000;stop-opacity:1"
         offset="0" />
      <stop
         id="stop3752-5"
         style="stop-color:#000000;stop-opacity:0.58823532"
         offset="1" />
    </linearGradient>
    <linearGradient
       x1="32.251034"
       y1="6.1317081"
       x2="32.251034"
       y2="90.238609"
       id="linearGradient3780"
       xlink:href="#ButtonShadow-0"
       gradientUnits="userSpaceOnUse"
       gradientTransform="matrix(1.0238095,0,0,1.0119048,-1.1428571,-98.071429)" />
    <linearGradient
       x1="32.251034"
       y1="6.1317081"
       x2="32.251034"
       y2="90.238609"
       id="linearGradient3772"
       xlink:href="#ButtonShadow-0"
       gradientUnits="userSpaceOnUse"
       gradientTransform="matrix(1.0238095,0,0,1.0119048,-1.1428571,-98.071429)" />
    <linearGradient
       x1="32.251034"
       y1="6.1317081"
       x2="32.251034"
       y2="90.238609"
       id="linearGradient3725"
       xlink:href="#ButtonShadow-0"
       gradientUnits="userSpaceOnUse"
       gradientTransform="matrix(1.0238095,0,0,1.0119048,-1.1428571,-98.071429)" />
    <linearGradient
       x1="32.251034"
       y1="6.1317081"
       x2="32.251034"
       y2="90.238609"
       id="linearGradient3721"
       xlink:href="#ButtonShadow-0"
       gradientUnits="userSpaceOnUse"
       gradientTransform="translate(0,-97)" />
    <linearGradient
       x1="32.251034"
       y1="6.1317081"
       x2="32.251034"
       y2="90.238609"
       id="linearGradient3760"
       xlink:href="#ButtonShadow-0"
       gradientUnits="userSpaceOnUse"
       gradientTransform="matrix(1.0238095,0,0,1.0119048,-1.1428571,-98.071429)" />
    <linearGradient
       id="linearGradient3737-0">
      <stop
         id="stop3739-6"
         style="stop-color:#ffffff;stop-opacity:1"
         offset="0" />
      <stop
         id="stop3741-0"
         style="stop-color:#ffffff;stop-opacity:0"
         offset="1" />
    </linearGradient>
    <radialGradient
       cx="48"
       cy="90.171875"
       r="42"
       fx="48"
       fy="90.171875"
       id="radialGradient2903"
       xlink:href="#linearGradient3737-0"
       gradientUnits="userSpaceOnUse"
       gradientTransform="matrix(1.1573129,0,0,0.99590774,-7.551021,0.1971319)" />
    <linearGradient
       id="linearGradient3737-9">
      <stop
         id="stop3739-2"
         style="stop-color:#ffffff;stop-opacity:1"
         offset="0" />
      <stop
         id="stop3741-1"
         style="stop-color:#ffffff;stop-opacity:0"
         offset="1" />
    </linearGradient>
    <clipPath
       id="clipPath3613">
      <rect
         width="84"
         height="84"
         rx="6"
         ry="6"
         x="6"
         y="6"
         id="rect3615"
         style="fill:#ffffff;fill-opacity:1;fill-rule:nonzero;stroke:none" />
    </clipPath>
    <filter
       x="-0.192"
       y="-0.192"
       width="1.3839999"
       height="1.3839999"
       color-interpolation-filters="sRGB"
       id="filter3794">
      <feGaussianBlur
         id="feGaussianBlur3796"
         stdDeviation="5.28" />
    </filter>
    <linearGradient
       x1="48"
       y1="20.220806"
       x2="48"
       y2="138.66119"
       id="linearGradient3822"
       xlink:href="#linearGradient3737-9"
       gradientUnits="userSpaceOnUse" />
    <linearGradient
       id="linearGradient3637">
      <stop
         offset="0"
         style="stop-color:#f0f0f0;stop-opacity:1"
         id="stop3639" />
      <stop
         offset="1"
         style="stop-color:#aaaaaa;stop-opacity:1"
         id="stop3641" />
    </linearGradient>
    <linearGradient
       id="linearGradient3737-6">
      <stop
         offset="0"
         style="stop-color:#ffffff;stop-opacity:1"
         id="stop3739-1" />
      <stop
         offset="1"
         style="stop-color:#ffffff;stop-opacity:0"
         id="stop3741-05" />
    </linearGradient>
    <linearGradient
       id="linearGradient3700-7">
      <stop
         offset="0"
         style="stop-color:#2276c5;stop-opacity:1"
         id="stop3702-5" />
      <stop
         offset="1"
         style="stop-color:#68baf4;stop-opacity:1"
         id="stop3704-5" />
    </linearGradient>
    <filter
       id="filter3174-4"
       color-interpolation-filters="sRGB">
      <feGaussianBlur
         stdDeviation="1.71"
         id="feGaussianBlur3176-2" />
    </filter>
    <filter
       id="filter3794-1"
       color-interpolation-filters="sRGB"
       height="1.3839999"
       width="1.3839999"
       y="-0.192"
       x="-0.192">
      <feGaussianBlur
         stdDeviation="5.28"
         id="feGaussianBlur3796-4" />
    </filter>
    <radialGradient
       gradientTransform="matrix(1.1573129,0,0,0.99590774,-7.5510206,0.19713193)"
       gradientUnits="userSpaceOnUse"
       xlink:href="#linearGradient3737-6"
       id="radialGradient3619"
       fy="90.171875"
       fx="48"
       r="42"
       cy="90.171875"
       cx="48" />
    <clipPath
       id="clipPath3613-6">
      <rect
         style="fill:#ffffff;fill-opacity:1;fill-rule:nonzero;stroke:none"
         id="rect3615-7"
         y="6"
         x="6"
         ry="6"
         rx="6"
         height="84"
         width="84" />
    </clipPath>
    <linearGradient
       gradientTransform="translate(0,100)"
       gradientUnits="userSpaceOnUse"
       xlink:href="#linearGradient3700-7"
       id="linearGradient2843"
       y2="5.9877172"
       x2="48"
       y1="90"
       x1="48" />
    <clipPath
       id="clipPath3625">
      <path
         style="fill:#ffffff;fill-opacity:1;stroke:none"
         id="path3627"
         inkscape:connector-curvature="0"
         d="M 0,0 0,96 96,96 96,0 0,0 z m 12,6 72,0 c 3.324,0 6,2.676 6,6 l 0,72 c 0,3.324 -2.676,6 -6,6 L 12,90 C 8.676,90 6,87.324 6,84 L 6,12 C 6,8.676 8.676,6 12,6 z" />
    </clipPath>
    <linearGradient
       gradientUnits="userSpaceOnUse"
       xlink:href="#linearGradient3637"
       id="linearGradient3643"
       y2="90.015434"
       x2="44.512066"
       y1="6"
       x1="44.512066" />
    <clipPath
       id="clipPath3649">
      <rect
         style="fill:#ffffff;fill-opacity:1;fill-rule:nonzero;stroke:none"
         id="rect3651"
         y="10"
         x="10"
         ry="4"
         rx="4"
         height="76"
         width="76" />
    </clipPath>
    <filter
       id="filter3657"
       color-interpolation-filters="sRGB">
      <feGaussianBlur
         stdDeviation="1.14"
         id="feGaussianBlur3659" />
    </filter>
    <linearGradient
       gradientTransform="matrix(1.0238095,0,0,-1.0119048,-1.1428571,98.071429)"
       gradientUnits="userSpaceOnUse"
       xlink:href="#ButtonShadow-0"
       id="linearGradient3780-8"
       y2="90.238609"
       x2="32.251034"
       y1="6.1317081"
       x1="32.251034" />
    <linearGradient
       gradientTransform="matrix(1,0,0,-1,0,97)"
       gradientUnits="userSpaceOnUse"
       xlink:href="#ButtonShadow-0"
       id="linearGradient3721-6"
       y2="90.238609"
       x2="32.251034"
       y1="6.1317081"
       x1="32.251034" />
    <linearGradient
       id="linearGradient3737-3">
      <stop
         offset="0"
         style="stop-color:#ffffff;stop-opacity:1"
         id="stop3739-6-0" />
      <stop
         offset="1"
         style="stop-color:#ffffff;stop-opacity:0"
         id="stop3741-1-4" />
    </linearGradient>
    <radialGradient
       gradientTransform="matrix(1.1573129,0,0,0.99590774,-7.551021,0.1971319)"
       gradientUnits="userSpaceOnUse"
       xlink:href="#linearGradient3737-3"
       id="radialGradient3619-3"
       fy="90.171875"
       fx="48"
       r="42"
       cy="90.171875"
       cx="48" />
    <linearGradient
       gradientTransform="translate(-25.297707,-65.98839)"
       gradientUnits="userSpaceOnUse"
       xlink:href="#linearGradient3637"
       id="linearGradient3905"
       y2="8"
       x2="120"
       y1="8"
       x1="104" />
    <linearGradient
       gradientTransform="translate(-222.70229,-65.98839)"
       gradientUnits="userSpaceOnUse"
       xlink:href="#linearGradient3183-0"
       id="linearGradient3913"
       y2="8"
       x2="120"
       y1="8"
       x1="104" />
    <linearGradient
       id="linearGradient3183-0">
      <stop
         offset="0"
         style="stop-color:#c80000;stop-opacity:1"
         id="stop3185-9" />
      <stop
         offset="1"
         style="stop-color:#f3604d;stop-opacity:1"
         id="stop3187-6" />
    </linearGradient>
    <linearGradient
       gradientTransform="matrix(2.7658632,0,0,3.2539569,-159.98839,88.702293)"
       gradientUnits="userSpaceOnUse"
       xlink:href="#linearGradient3637"
       id="linearGradient3133"
       y2="20.282997"
       x2="11.998966"
       y1="5.5317268"
       x1="11.998966" />
    <linearGradient
       inkscape:collect="always"
       xlink:href="#ButtonShadow"
       id="linearGradient4327"
       gradientUnits="userSpaceOnUse"
       gradientTransform="scale(1.0058652,0.994169)"
       x1="45.447727"
       y1="92.539597"
       x2="45.447727"
       y2="7.0165396" />
    <linearGradient
       inkscape:collect="always"
       xlink:href="#linearGradient3737"
       id="linearGradient4335"
       gradientUnits="userSpaceOnUse"
       x1="36.357143"
       y1="6"
       x2="36.357143"
       y2="63.893143" />
    <linearGradient
       inkscape:collect="always"
       xlink:href="#linearGradient3737-9"
       id="linearGradient4339"
       gradientUnits="userSpaceOnUse"
       x1="48"
       y1="20.220806"
       x2="48"
       y2="138.66119" />
  </defs>
  <metadata
     id="metadata2413">
    <rdf:RDF>
      <cc:Work
         rdf:about="">
        <dc:format>image/svg+xml</dc:format>
        <dc:type
           rdf:resource="http://purl.org/dc/dcmitype/StillImage" />
      </cc:Work>
    </rdf:RDF>
  </metadata>
  <g
     id="layer2"
     style="display:none">
    <rect
       width="86"
       height="85"
       rx="6"
       ry="6"
       x="5"
       y="7"
       id="rect3745"
       style="opacity:0.9;fill:url(#ButtonShadow);fill-opacity:1;fill-rule:nonzero;stroke:none;filter:url(#filter3174)" />
  </g>
  <g
     id="layer2-2"
     style="display:none"
     transform="translate(-179.28621,72.193818)">
    <rect
       width="86"
       height="85"
       rx="6"
       ry="6"
       x="5"
       y="7"
       clip-path="url(#clipPath3625)"
       id="rect3745-5"
       style="opacity:0.9;fill:url(#linearGradient4327);fill-opacity:1;fill-rule:nonzero;stroke:none;filter:url(#filter3174-4)" />
  </g>
  <g
     id="layer1-5"
     style="display:none"
     transform="translate(-179.28621,72.193818)">
    <rect
       width="84"
       height="84"
       rx="6"
       ry="6"
       x="6"
       y="6"
       id="rect2419-8"
       style="opacity:0.8;fill:#000000;fill-opacity:1;fill-rule:nonzero;stroke:none" />
    <path
       d="m 14,10 c -2.216,0 -4,1.784 -4,4 l 0,68 c 0,2.216 1.784,4 4,4 l 68,0 c 2.216,0 4,-1.784 4,-4 l 0,-68 c 0,-2.216 -1.784,-4 -4,-4 l -68,0 z m 0,3.0625 68,0 c 0.578769,0 0.9375,0.358731 0.9375,0.9375 l 0,68 c 0,0.578769 -0.358731,0.9375 -0.9375,0.9375 l -68,0 c -0.578769,0 -0.9375,-0.358731 -0.9375,-0.9375 l 0,-68 c 0,-0.578769 0.358731,-0.9375 0.9375,-0.9375 z"
       inkscape:connector-curvature="0"
       id="rect3726"
       style="opacity:0.07999998;fill:#000000;fill-opacity:1;fill-rule:nonzero;stroke:none" />
    <path
       d="M 12,6 C 8.676,6 6,8.676 6,12 l 0,72 c 0,3.324 2.676,6 6,6 l 72,0 c 3.324,0 6,-2.676 6,-6 L 90,12 C 90,8.676 87.324,6 84,6 L 12,6 Z m 2,4 68,0 c 2.216,0 4,1.784 4,4 l 0,68 c 0,2.216 -1.784,4 -4,4 l -68,0 c -2.216,0 -4,-1.784 -4,-4 l 0,-68 c 0,-2.216 1.784,-4 4,-4 z"
       inkscape:connector-curvature="0"
       id="rect3629"
       style="fill:url(#linearGradient3643);fill-opacity:1;fill-rule:nonzero;stroke:none" />
    <path
       d="M 12,6 C 8.676,6 6,8.676 6,12 l 0,2 0,68 0,2 c 0,0.334721 0.04135,0.6507 0.09375,0.96875 0.0487,0.295596 0.09704,0.596915 0.1875,0.875 0.00988,0.03038 0.020892,0.0636 0.03125,0.09375 0.098865,0.287771 0.2348802,0.547452 0.375,0.8125 0.1445918,0.273507 0.3156161,0.535615 0.5,0.78125 0.1843839,0.245635 0.3737765,0.473472 0.59375,0.6875 0.439947,0.428056 0.94291,0.814526 1.5,1.09375 0.278545,0.139612 0.5734731,0.246947 0.875,0.34375 -0.2562018,-0.100222 -0.4867109,-0.236272 -0.71875,-0.375 -0.00741,-0.0044 -0.023866,0.0045 -0.03125,0 -0.031933,-0.0193 -0.062293,-0.04251 -0.09375,-0.0625 -0.120395,-0.0767 -0.2310226,-0.163513 -0.34375,-0.25 -0.1061728,-0.0808 -0.2132809,-0.161112 -0.3125,-0.25 C 8.4783201,88.557317 8.3087904,88.373362 8.15625,88.1875 8.0486711,88.057245 7.9378561,87.922215 7.84375,87.78125 7.818661,87.74287 7.805304,87.69538 7.78125,87.65625 7.716487,87.553218 7.6510225,87.451733 7.59375,87.34375 7.4927417,87.149044 7.3880752,86.928049 7.3125,86.71875 7.30454,86.69694 7.288911,86.6782 7.28125,86.65625 7.2494249,86.5643 7.2454455,86.469419 7.21875,86.375 7.1884177,86.268382 7.1483606,86.171969 7.125,86.0625 7.0521214,85.720988 7,85.364295 7,85 L 7,83 7,15 7,13 C 7,10.218152 9.2181517,8 12,8 l 2,0 68,0 2,0 c 2.781848,0 5,2.218152 5,5 l 0,2 0,68 0,2 c 0,0.364295 -0.05212,0.720988 -0.125,1.0625 -0.04415,0.206893 -0.08838,0.397658 -0.15625,0.59375 -0.0077,0.02195 -0.0233,0.04069 -0.03125,0.0625 -0.06274,0.173739 -0.138383,0.367449 -0.21875,0.53125 -0.04158,0.0828 -0.07904,0.169954 -0.125,0.25 -0.0546,0.09721 -0.126774,0.18835 -0.1875,0.28125 -0.09411,0.140965 -0.204921,0.275995 -0.3125,0.40625 -0.143174,0.17445 -0.303141,0.346998 -0.46875,0.5 -0.01117,0.0102 -0.01998,0.02115 -0.03125,0.03125 -0.138386,0.125556 -0.285091,0.234436 -0.4375,0.34375 -0.102571,0.07315 -0.204318,0.153364 -0.3125,0.21875 -0.0074,0.0045 -0.02384,-0.0044 -0.03125,0 -0.232039,0.138728 -0.462548,0.274778 -0.71875,0.375 0.301527,-0.0968 0.596455,-0.204138 0.875,-0.34375 0.55709,-0.279224 1.060053,-0.665694 1.5,-1.09375 0.219973,-0.214028 0.409366,-0.441865 0.59375,-0.6875 0.184384,-0.245635 0.355408,-0.507743 0.5,-0.78125 0.14012,-0.265048 0.276135,-0.524729 0.375,-0.8125 0.01041,-0.03078 0.02133,-0.06274 0.03125,-0.09375 0.09046,-0.278085 0.1388,-0.579404 0.1875,-0.875 C 89.95865,84.6507 90,84.334721 90,84 l 0,-2 0,-68 0,-2 C 90,8.676 87.324,6 84,6 L 12,6 Z"
       inkscape:connector-curvature="0"
       id="rect3728-1"
       style="fill:url(#linearGradient4335);fill-opacity:1;fill-rule:nonzero;stroke:none" />
    <path
       d="M 12,90 C 8.676,90 6,87.324 6,84 L 6,82 6,14 6,12 c 0,-0.334721 0.04135,-0.6507 0.09375,-0.96875 0.0487,-0.295596 0.09704,-0.596915 0.1875,-0.875 C 6.29113,10.12587 6.302142,10.09265 6.3125,10.0625 6.411365,9.774729 6.5473802,9.515048 6.6875,9.25 6.8320918,8.976493 7.0031161,8.714385 7.1875,8.46875 7.3718839,8.223115 7.5612765,7.995278 7.78125,7.78125 8.221197,7.353194 8.72416,6.966724 9.28125,6.6875 9.559795,6.547888 9.8547231,6.440553 10.15625,6.34375 9.9000482,6.443972 9.6695391,6.580022 9.4375,6.71875 c -0.00741,0.0044 -0.023866,-0.0045 -0.03125,0 -0.031933,0.0193 -0.062293,0.04251 -0.09375,0.0625 -0.120395,0.0767 -0.2310226,0.163513 -0.34375,0.25 -0.1061728,0.0808 -0.2132809,0.161112 -0.3125,0.25 C 8.4783201,7.442683 8.3087904,7.626638 8.15625,7.8125 8.0486711,7.942755 7.9378561,8.077785 7.84375,8.21875 7.818661,8.25713 7.805304,8.30462 7.78125,8.34375 7.716487,8.446782 7.6510225,8.548267 7.59375,8.65625 7.4927417,8.850956 7.3880752,9.071951 7.3125,9.28125 7.30454,9.30306 7.288911,9.3218 7.28125,9.34375 7.2494249,9.4357 7.2454455,9.530581 7.21875,9.625 7.1884177,9.731618 7.1483606,9.828031 7.125,9.9375 7.0521214,10.279012 7,10.635705 7,11 l 0,2 0,68 0,2 c 0,2.781848 2.2181517,5 5,5 l 2,0 68,0 2,0 c 2.781848,0 5,-2.218152 5,-5 l 0,-2 0,-68 0,-2 C 89,10.635705 88.94788,10.279012 88.875,9.9375 88.83085,9.730607 88.78662,9.539842 88.71875,9.34375 88.71105,9.3218 88.69545,9.30306 88.6875,9.28125 88.62476,9.107511 88.549117,8.913801 88.46875,8.75 88.42717,8.6672 88.38971,8.580046 88.34375,8.5 88.28915,8.40279 88.216976,8.31165 88.15625,8.21875 88.06214,8.077785 87.951329,7.942755 87.84375,7.8125 87.700576,7.63805 87.540609,7.465502 87.375,7.3125 87.36383,7.3023 87.35502,7.29135 87.34375,7.28125 87.205364,7.155694 87.058659,7.046814 86.90625,6.9375 86.803679,6.86435 86.701932,6.784136 86.59375,6.71875 c -0.0074,-0.0045 -0.02384,0.0044 -0.03125,0 -0.232039,-0.138728 -0.462548,-0.274778 -0.71875,-0.375 0.301527,0.0968 0.596455,0.204138 0.875,0.34375 0.55709,0.279224 1.060053,0.665694 1.5,1.09375 0.219973,0.214028 0.409366,0.441865 0.59375,0.6875 0.184384,0.245635 0.355408,0.507743 0.5,0.78125 0.14012,0.265048 0.276135,0.524729 0.375,0.8125 0.01041,0.03078 0.02133,0.06274 0.03125,0.09375 0.09046,0.278085 0.1388,0.579404 0.1875,0.875 C 89.95865,11.3493 90,11.665279 90,12 l 0,2 0,68 0,2 c 0,3.324 -2.676,6 -6,6 l -72,0 z"
       inkscape:connector-curvature="0"
       id="path3615-0"
       style="opacity:0.6;fill:url(#radialGradient3619);fill-opacity:1;fill-rule:nonzero;stroke:none" />
    <rect
       width="84"
       height="84"
       rx="6"
       ry="6"
       x="6"
       y="106"
       id="rect2841"
       style="fill:url(#linearGradient2843);fill-opacity:1;fill-rule:nonzero;stroke:none" />
    <rect
       width="76"
       height="76"
       rx="4"
       ry="4"
       x="10"
       y="110"
       id="rect3634"
       style="fill:#ff0000;fill-opacity:1;fill-rule:nonzero;stroke:none" />
    <path
       d="m 14,9 c -2.752703,0 -5,2.247297 -5,5 l 0,68 c 0,2.752703 2.247297,5 5,5 l 68,0 c 2.752703,0 5,-2.247297 5,-5 L 87,14 C 87,11.247297 84.752703,9 82,9 L 14,9 Z m 0,2 68,0 c 1.679297,0 3,1.320703 3,3 l 0,68 c 0,1.679297 -1.320703,3 -3,3 l -68,0 c -1.679297,0 -3,-1.320703 -3,-3 l 0,-68 c 0,-1.679297 1.320703,-3 3,-3 z"
       inkscape:connector-curvature="0"
       transform="translate(-110,0)"
       clip-path="url(#clipPath3649)"
       id="rect3647"
       style="color:#000000;font-style:normal;font-variant:normal;font-weight:normal;font-stretch:normal;font-size:medium;line-height:normal;font-family:Abandoned Bitplane;-inkscape-font-specification:Abandoned Bitplane;text-indent:0;text-align:start;text-decoration:none;text-decoration-line:none;letter-spacing:normal;word-spacing:normal;text-transform:none;direction:ltr;block-progression:tb;writing-mode:lr-tb;text-anchor:start;display:inline;overflow:visible;visibility:visible;fill:#000000;fill-opacity:1;stroke:none;stroke-width:2;marker:none;filter:url(#filter3657);enable-background:accumulate" />
    <path
       d="m 14.089286,10 c -2.216,0 -4,1.784 -4,4 l 0,68 c 0,2.216 1.784,4 4,4 l 68,0 c 2.216,0 4,-1.784 4,-4 l 0,-68 c 0,-2.216 -1.784,-4 -4,-4 l -68,0 z m 0,2 68,0 c 1.140301,0 2,0.859699 2,2 l 0,68 c 0,1.140301 -0.859699,2 -2,2 l -68,0 c -1.140301,0 -2,-0.859699 -2,-2 l 0,-68 c 0,-1.140301 0.859699,-2 2,-2 z"
       inkscape:connector-curvature="0"
       id="path3709"
       style="opacity:0.16000001;fill:#000000;fill-opacity:1;fill-rule:nonzero;stroke:none" />
    <path
       d="m 14,10 c -2.216,0 -4,1.784 -4,4 l 0,68 c 0,2.216 1.784,4 4,4 l 68,0 c 2.216,0 4,-1.784 4,-4 l 0,-68 c 0,-2.216 -1.784,-4 -4,-4 l -68,0 z m 0,1 68,0 c 1.673848,0 3,1.326152 3,3 l 0,68 c 0,1.673848 -1.326152,3 -3,3 l -68,0 c -1.673848,0 -3,-1.326152 -3,-3 l 0,-68 c 0,-1.673848 1.326152,-3 3,-3 z"
       inkscape:connector-curvature="0"
       id="path3707"
       style="opacity:0.36000001;fill:#000000;fill-opacity:1;fill-rule:nonzero;stroke:none" />
  </g>
  <g
     id="layer5-8"
     style="display:none"
     transform="translate(-179.28621,72.193818)">
    <rect
       width="66"
       height="66"
       rx="12"
       ry="12"
       x="15"
       y="15"
       clip-path="url(#clipPath3613-6)"
       id="rect3171-7"
       style="opacity:0.1;fill:url(#linearGradient4339);fill-opacity:1;fill-rule:nonzero;stroke:#ffffff;stroke-width:0.5;stroke-linecap:round;stroke-linejoin:miter;stroke-miterlimit:4;stroke-dasharray:none;stroke-dashoffset:0;stroke-opacity:1;filter:url(#filter3794-1)" />
  </g>
  <g
     id="g4500">
    <g
       style="display:inline"
       id="layer7">
      <path
         style="opacity:0.07999998;fill:url(#linearGradient3760);fill-opacity:1;fill-rule:nonzero;stroke:none;display:inline"
         id="path3786"
         transform="scale(1,-1)"
         d="m 12,-95.03125 c -5.5110903,0 -10.03125,4.52016 -10.03125,10.03125 l 0,71 c 0,5.5110902 4.5201598,10.03125 10.03125,10.03125 l 72,0 c 5.51109,0 10.03125,-4.5201597 10.03125,-10.03125 l 0,-71 c 0,-5.51109 -4.52016,-10.03125 -10.03125,-10.03125 l -72,0 z" />
      <path
         style="opacity:0.1;fill:url(#linearGradient3780);fill-opacity:1;fill-rule:nonzero;stroke:none;display:inline"
         id="path3778"
         transform="scale(1,-1)"
         d="m 12,-94.03125 c -4.971633,0 -9.03125,4.059617 -9.03125,9.03125 l 0,71 c 0,4.9716329 4.0596171,9.03125 9.03125,9.03125 l 72,0 c 4.971633,0 9.03125,-4.059617 9.03125,-9.03125 l 0,-71 c 0,-4.971633 -4.059617,-9.03125 -9.03125,-9.03125 l -72,0 z" />
      <path
         style="opacity:0.2;fill:url(#linearGradient3772);fill-opacity:1;fill-rule:nonzero;stroke:none;display:inline"
         id="path3770"
         transform="scale(1,-1)"
         d="m 12,-93 c -4.4091333,0 -8,3.590867 -8,8 l 0,71 c 0,4.4091333 3.5908667,8 8,8 l 72,0 c 4.409133,0 8,-3.5908667 8,-8 l 0,-71 c 0,-4.409133 -3.590867,-8 -8,-8 l -72,0 z" />
      <rect
         style="opacity:0.3;fill:url(#linearGradient3725);fill-opacity:1;fill-rule:nonzero;stroke:none;display:inline"
         id="rect3723"
         transform="scale(1,-1)"
         y="-92"
         x="5"
         ry="7"
         rx="7"
         height="85"
         width="86" />
      <rect
         style="opacity:0.45;fill:url(#linearGradient3721);fill-opacity:1;fill-rule:nonzero;stroke:none;display:inline"
         id="rect3716"
         transform="scale(1,-1)"
         y="-91"
         x="6"
         ry="6"
         rx="6"
         height="84"
         width="84" />
    </g>
    <g
       id="layer1">
      <rect
         style="fill:url(#linearGradient3706);fill-opacity:1;fill-rule:nonzero;stroke:none"
         id="rect2419"
         y="6"
         x="6"
         ry="6"
         rx="6"
         height="84"
         width="84" />
    </g>
    <g
       id="layer5">
      <rect
         style="opacity:0.5;fill:url(#linearGradient3822);fill-opacity:1;fill-rule:nonzero;stroke:#ffffff;stroke-width:0.5;stroke-linecap:round;stroke-linejoin:miter;stroke-miterlimit:4;stroke-opacity:1;stroke-dasharray:none;stroke-dashoffset:0;display:inline;filter:url(#filter3794)"
         id="rect3171"
         clip-path="url(#clipPath3613)"
         y="15"
         x="15"
         ry="12"
         rx="12"
         height="66"
         width="66" />
    </g>
    <g
       id="layer3">
      <path
         style="opacity:0.5;fill:#999999;fill-opacity:1;fill-rule:nonzero;stroke:none"
         id="rect3362"
         inkscape:connector-curvature="0"
         d="M 12,12 12,29.9375 20.09375,12 12,12 z M 21.90625,12 30,29.9375 30,12 21.90625,12 z M 21,19.03125 l -3.03125,7 2.928571,0 1.71875,3.96875 3.227679,0 -2.375,-5.28125 -0.0625,-0.125 L 21,19.03125 z" />
      <path
         style="opacity:0.1;fill:#000000;fill-opacity:1;fill-rule:evenodd;stroke:none"
         id="path3192"
         inkscape:connector-curvature="0"
         d="M 90,28.6875 C 66.483285,59.017616 30.249279,63.158806 6,58.78125 l 0,4.90625 c 22.767532,4.109913 50.946157,3.417984 71.3125,-5.09375 -4.387217,6.352052 -6.223842,13.463734 -6.65625,19.9375 -0.278127,4.163964 0.003,8.088332 0.46875,11.46875 l 4.03125,0 c -0.478649,-3.261833 -0.772231,-7.111813 -0.5,-11.1875 C 75.286755,69.372953 78.723322,58.984232 90,51.84375 L 90,28.6875 z" />
      <path
         style="fill:url(#linearGradient3203);fill-opacity:1;fill-rule:evenodd;stroke:none;display:inline"
         id="path4144"
         inkscape:connector-curvature="0"
         d="M 58.762131,6.0005672 C 54.813987,14.692463 51.82222,23.633779 49.837199,32.644132 48.806861,33.464064 47.759914,34.230151 46.687219,35.006616 34.448967,43.86517 19.768492,49.65331 6,49.312763 l 0,6.562455 C 18.183497,57.025416 26.288573,59.087281 31.806074,66.42514 37.263113,73.682589 40.318537,80.858914 40.318537,90 l 4.199972,0 c 0,-9.113789 -3.95447,-19.939986 -9.299958,-26.068593 C 29.93589,57.874832 23.264186,55.069699 14.268692,52.987738 26.298245,51.377178 38.242322,46.028524 48.524707,38.681591 45.55928,55.902052 46.04264,73.389567 49.705946,90 L 78.712,90 C 64.218349,76.858849 57.948589,53.302841 57.974636,31.069143 66.147448,23.461052 72.49871,14.738119 75.824519,6.0005672 l -4.46247,0 C 68.596865,12.400983 63.962095,18.968932 58.10589,25.031685 58.462461,18.332933 59.531125,11.920825 60.993371,6.0005672 l -2.23124,0 z" />
      <path
         style="opacity:0.6;fill:#550000;fill-opacity:1;fill-rule:evenodd;stroke:none;display:inline"
         id="path3683"
         inkscape:connector-curvature="0"
         d="M 58.75,6 C 54.801856,14.691896 51.828771,23.645897 49.84375,32.65625 48.813412,33.476182 47.760195,34.223535 46.6875,35 34.449248,43.858554 19.768492,49.653047 6,49.3125 l 0,1 C 19.768492,50.653047 34.449248,44.858554 46.6875,36 47.760195,35.223535 48.813412,34.476182 49.84375,33.65625 51.828771,24.645897 54.801856,15.691896 58.75,7 l 2,0 C 60.828988,6.6670557 60.918512,6.3299248 61,6 l -2.25,0 z m 12.625,0 c -2.750591,6.366638 -7.375043,12.901458 -13.1875,18.9375 -0.02373,0.36488 -0.07423,0.727119 -0.09375,1.09375 C 63.949955,19.968497 68.609816,13.400416 71.375,7 l 4.03125,0 C 75.54317,6.6637659 75.684478,6.3363402 75.8125,6 L 71.375,6 z M 58.03125,35.25 c 0.535584,20.715555 6.558943,42.08726 19.625,54.75 l 1.0625,0 C 65.130952,77.680171 58.751682,56.206067 58.03125,35.25 z m -9.5,4.4375 c -0.06075,0.04341 -0.126632,0.08173 -0.1875,0.125 -1.048187,6.416674 -1.61151,12.856525 -1.71875,19.28125 0.156241,-6.472447 0.794215,-12.948577 1.90625,-19.40625 z M 16.75,53.625 c -0.822927,0.14489 -1.644513,0.264648 -2.46875,0.375 8.995494,2.081961 15.654839,4.880925 20.9375,10.9375 C 40.369893,70.84329 44.226175,81.105736 44.5,90 l 0.03125,0 c 0,-9.113789 -3.967012,-19.933893 -9.3125,-26.0625 C 30.438061,58.456437 24.498696,55.654163 16.75,53.625 z" />
      <path
         style="opacity:0.8;fill:#ffffff;fill-opacity:1;fill-rule:evenodd;stroke:none;display:inline"
         id="path3671"
         inkscape:connector-curvature="0"
         d="m 60.75,7 c -1.338401,5.641496 -2.31955,11.705807 -2.65625,18.03125 0.03091,-0.032 0.06291,-0.06173 0.09375,-0.09375 C 58.597335,18.635619 59.617784,12.596235 61,7 l -0.25,0 z m 14.65625,0 c -3.420027,8.398562 -9.579289,16.747272 -17.4375,24.0625 -3.89e-4,0.331772 -0.0024,0.667678 0,1 C 66.141562,24.454409 72.486691,15.737552 75.8125,7 l -0.40625,0 z m -26.875,31.6875 C 38.248865,46.034433 26.310803,51.38944 14.28125,53 c 0.854775,0.197833 1.655137,0.411938 2.46875,0.625 11.11655,-1.957259 22.058519,-7.034282 31.59375,-13.8125 0.0615,-0.376516 0.122704,-0.748727 0.1875,-1.125 z M 6,55.875 l 0,1 c 12.183497,1.150198 20.294999,3.224641 25.8125,10.5625 5.254879,6.988591 8.252476,13.898377 8.46875,22.5625 l 0.03125,0 c 0,-9.141086 -3.042961,-16.305051 -8.5,-23.5625 C 26.294999,59.099641 18.183497,57.025198 6,55.875 z m 40.625,8.6875 C 46.768504,73.158773 47.734334,81.686962 49.5,90 l 0.21875,0 C 47.887097,81.694783 46.833075,73.163241 46.625,64.5625 z" />
    </g>
    <g
       id="layer4">
      <path
         style="opacity:0.5;fill:url(#linearGradient3188);fill-opacity:1;fill-rule:nonzero;stroke:none"
         id="rect3728"
         inkscape:connector-curvature="0"
         d="M 12,6 C 8.676,6 6,8.676 6,12 l 0,2 0,68 0,2 c 0,0.334721 0.04135,0.6507 0.09375,0.96875 0.0487,0.295596 0.09704,0.596915 0.1875,0.875 0.00988,0.03038 0.020892,0.0636 0.03125,0.09375 0.098865,0.287771 0.2348802,0.547452 0.375,0.8125 0.1445918,0.273507 0.3156161,0.535615 0.5,0.78125 0.1843839,0.245635 0.3737765,0.473472 0.59375,0.6875 0.439947,0.428056 0.94291,0.814526 1.5,1.09375 0.278545,0.139612 0.5734731,0.246947 0.875,0.34375 -0.2562018,-0.100222 -0.4867109,-0.236272 -0.71875,-0.375 -0.00741,-0.0044 -0.023866,0.0045 -0.03125,0 -0.031933,-0.0193 -0.062293,-0.04251 -0.09375,-0.0625 -0.120395,-0.0767 -0.2310226,-0.163513 -0.34375,-0.25 -0.1061728,-0.0808 -0.2132809,-0.161112 -0.3125,-0.25 C 8.4783201,88.557317 8.3087904,88.373362 8.15625,88.1875 8.0486711,88.057245 7.9378561,87.922215 7.84375,87.78125 7.818661,87.74287 7.805304,87.69538 7.78125,87.65625 7.716487,87.553218 7.6510225,87.451733 7.59375,87.34375 7.4927417,87.149044 7.3880752,86.928049 7.3125,86.71875 7.30454,86.69694 7.288911,86.6782 7.28125,86.65625 7.2494249,86.5643 7.2454455,86.469419 7.21875,86.375 7.1884177,86.268382 7.1483606,86.171969 7.125,86.0625 7.0521214,85.720988 7,85.364295 7,85 L 7,83 7,15 7,13 C 7,10.218152 9.2181517,8 12,8 l 2,0 68,0 2,0 c 2.781848,0 5,2.218152 5,5 l 0,2 0,68 0,2 c 0,0.364295 -0.05212,0.720988 -0.125,1.0625 -0.04415,0.206893 -0.08838,0.397658 -0.15625,0.59375 -0.0077,0.02195 -0.0233,0.04069 -0.03125,0.0625 -0.06274,0.173739 -0.138383,0.367449 -0.21875,0.53125 -0.04158,0.0828 -0.07904,0.169954 -0.125,0.25 -0.0546,0.09721 -0.126774,0.18835 -0.1875,0.28125 -0.09411,0.140965 -0.204921,0.275995 -0.3125,0.40625 -0.143174,0.17445 -0.303141,0.346998 -0.46875,0.5 -0.01117,0.0102 -0.01998,0.02115 -0.03125,0.03125 -0.138386,0.125556 -0.285091,0.234436 -0.4375,0.34375 -0.102571,0.07315 -0.204318,0.153364 -0.3125,0.21875 -0.0074,0.0045 -0.02384,-0.0044 -0.03125,0 -0.232039,0.138728 -0.462548,0.274778 -0.71875,0.375 0.301527,-0.0968 0.596455,-0.204138 0.875,-0.34375 0.55709,-0.279224 1.060053,-0.665694 1.5,-1.09375 0.219973,-0.214028 0.409366,-0.441865 0.59375,-0.6875 0.184384,-0.245635 0.355408,-0.507743 0.5,-0.78125 0.14012,-0.265048 0.276135,-0.524729 0.375,-0.8125 0.01041,-0.03078 0.02133,-0.06274 0.03125,-0.09375 0.09046,-0.278085 0.1388,-0.579404 0.1875,-0.875 C 89.95865,84.6507 90,84.334721 90,84 l 0,-2 0,-68 0,-2 C 90,8.676 87.324,6 84,6 L 12,6 z" />
      <path
         style="opacity:0.3;fill:url(#radialGradient2903);fill-opacity:1;fill-rule:nonzero;stroke:none;display:inline"
         id="path3615"
         inkscape:connector-curvature="0"
         d="M 12,90 C 8.676,90 6,87.324 6,84 L 6,82 6,14 6,12 c 0,-0.334721 0.04135,-0.6507 0.09375,-0.96875 0.0487,-0.295596 0.09704,-0.596915 0.1875,-0.875 C 6.29113,10.12587 6.302142,10.09265 6.3125,10.0625 6.411365,9.774729 6.5473802,9.515048 6.6875,9.25 6.8320918,8.976493 7.0031161,8.714385 7.1875,8.46875 7.3718839,8.223115 7.5612765,7.995278 7.78125,7.78125 8.221197,7.353194 8.72416,6.966724 9.28125,6.6875 9.559795,6.547888 9.8547231,6.440553 10.15625,6.34375 9.9000482,6.443972 9.6695391,6.580022 9.4375,6.71875 c -0.00741,0.0044 -0.023866,-0.0045 -0.03125,0 -0.031933,0.0193 -0.062293,0.04251 -0.09375,0.0625 -0.120395,0.0767 -0.2310226,0.163513 -0.34375,0.25 -0.1061728,0.0808 -0.2132809,0.161112 -0.3125,0.25 C 8.4783201,7.442683 8.3087904,7.626638 8.15625,7.8125 8.0486711,7.942755 7.9378561,8.077785 7.84375,8.21875 7.818661,8.25713 7.805304,8.30462 7.78125,8.34375 7.716487,8.446782 7.6510225,8.548267 7.59375,8.65625 7.4927417,8.850956 7.3880752,9.071951 7.3125,9.28125 7.30454,9.30306 7.288911,9.3218 7.28125,9.34375 7.2494249,9.4357 7.2454455,9.530581 7.21875,9.625 7.1884177,9.731618 7.1483606,9.828031 7.125,9.9375 7.0521214,10.279012 7,10.635705 7,11 l 0,2 0,68 0,2 c 0,2.781848 2.2181517,5 5,5 l 2,0 68,0 2,0 c 2.781848,0 5,-2.218152 5,-5 l 0,-2 0,-68 0,-2 C 89,10.635705 88.94788,10.279012 88.875,9.9375 88.83085,9.730607 88.78662,9.539842 88.71875,9.34375 88.71105,9.3218 88.69545,9.30306 88.6875,9.28125 88.62476,9.107511 88.549117,8.913801 88.46875,8.75 88.42717,8.6672 88.38971,8.580046 88.34375,8.5 88.28915,8.40279 88.216976,8.31165 88.15625,8.21875 88.06214,8.077785 87.951329,7.942755 87.84375,7.8125 87.700576,7.63805 87.540609,7.465502 87.375,7.3125 87.36383,7.3023 87.35502,7.29135 87.34375,7.28125 87.205364,7.155694 87.058659,7.046814 86.90625,6.9375 86.803679,6.86435 86.701932,6.784136 86.59375,6.71875 c -0.0074,-0.0045 -0.02384,0.0044 -0.03125,0 -0.232039,-0.138728 -0.462548,-0.274778 -0.71875,-0.375 0.301527,0.0968 0.596455,0.204138 0.875,0.34375 0.55709,0.279224 1.060053,0.665694 1.5,1.09375 0.219973,0.214028 0.409366,0.441865 0.59375,0.6875 0.184384,0.245635 0.355408,0.507743 0.5,0.78125 0.14012,0.265048 0.276135,0.524729 0.375,0.8125 0.01041,0.03078 0.02133,0.06274 0.03125,0.09375 0.09046,0.278085 0.1388,0.579404 0.1875,0.875 C 89.95865,11.3493 90,11.665279 90,12 l 0,2 0,68 0,2 c 0,3.324 -2.676,6 -6,6 l -72,0 z" />
    </g>
    <g
       style="fill:#4d4d4d"
       transform="matrix(1.1741743,0,0,1.1741743,191.25885,-104.28685)"
       id="g4400">
      <path
         style="display:inline;opacity:0.1;fill:#4d4d4d;fill-opacity:1;stroke:none"
         id="path3932"
         inkscape:connector-curvature="0"
         d="m -136.23839,101.70229 c -2.40611,0.40902 -4.06857,2.82559 -3.75,5.22726 0.0211,4.39194 -0.0421,8.79222 0.0312,13.17899 0.37935,2.35779 2.65556,3.63088 4.11222,5.33098 1.44176,1.44176 2.88352,2.88351 4.32528,4.32527 -2.94317,-0.14408 -5.91923,-0.0225 -8.875,-0.0625 -1.53213,0.31784 -1.7422,2.00457 -1.59375,3.29826 0,1.56725 0,3.1345 0,4.70174 -2.19452,0.0589 -4.41799,-0.12008 -6.59375,0.0937 -1.87997,0.56353 -1.33251,2.79033 -1.40625,4.2819 0.0601,2.06916 -0.12181,4.16777 0.0937,6.2181 0.56352,1.87998 2.79033,1.33251 4.28189,1.40625 1.20812,0 2.41624,0 3.62436,0 0.0589,2.19452 -0.12008,4.41799 0.0937,6.59375 0.56352,1.87998 2.79033,1.33251 4.28189,1.40625 2.06916,-0.0601 4.16778,0.12181 6.21811,-0.0937 1.87997,-0.56352 1.33251,-2.79033 1.40625,-4.28189 0,-1.20812 0,-2.41624 0,-3.62436 2.19452,-0.0589 4.41799,0.12009 6.59375,-0.0937 1.87997,-0.56352 1.33251,-2.79033 1.40625,-4.28189 -0.0415,-2.02848 0.0831,-4.0774 -0.0625,-6.09311 2.60838,2.54503 5.10165,5.22793 7.78125,7.6875 0.24212,0.15874 1.22573,0.70941 1.875,0.71875 1.03791,0.23376 2.58861,-0.25755 3.11949,-0.68493 2.89622,-2.59924 5.54075,-5.49689 8.33951,-8.21157 1.961583,-1.96158 3.923167,-3.92316 5.88475,-5.88475 0.181692,-0.24693 0.762965,-0.9917 0.90625,-1.78125 0.311948,-1.24817 0.09023,-2.635 -0.64296,-3.67357 -0.216036,-0.33617 -1.144206,-1.24352 -1.66443,-1.75882 -7.69355,-7.67276 -15.35226,-15.39385 -23.06761,-23.03636 -1.96551,-1.46102 -4.55368,-0.73002 -6.83653,-0.90625 -3.29407,0 -6.5882,0 -9.88222,0 z m 8.75,10 c 4.29483,-0.0281 2.17861,7.00423 -1.41282,4.58192 -2.01874,-1.26242 -1.00773,-4.71129 1.41282,-4.58192 z m -2.5625,19.53125 c 2.17708,2.17709 4.35417,4.35417 6.53125,6.53125 -2.14115,-0.14376 -4.31489,-0.0224 -6.46875,-0.0625 -0.0405,-2.15317 0.0817,-4.32858 -0.0625,-6.46875 z" />
      <path
         style="display:inline;opacity:0.15;fill:#4d4d4d;fill-opacity:1;stroke:none"
         id="path3928"
         d="m -136.01964,102.76479 a 0.93179966,0.93179966 0 0 0 -0.0625,0.0312 c -0.0459,0.008 -0.26754,0.05 -0.3125,0.0625 -0.045,0.0125 -0.23756,0.0774 -0.28125,0.0937 -0.0437,0.0164 -0.23917,0.10485 -0.28125,0.125 -0.0421,0.0202 -0.24111,0.10123 -0.28125,0.125 -0.0401,0.0238 -0.21211,0.16029 -0.25,0.1875 -0.0379,0.0272 -0.1834,0.15706 -0.21875,0.1875 -0.0353,0.0304 -0.21747,0.15407 -0.25,0.1875 -0.0325,0.0334 -0.15804,0.21384 -0.1875,0.25 -0.0295,0.0362 -0.16134,0.18015 -0.1875,0.21875 -0.0262,0.0386 -0.13358,0.2405 -0.15625,0.28125 -0.0227,0.0408 -0.10601,0.20741 -0.125,0.25 -0.019,0.0426 -0.10983,0.23716 -0.125,0.28125 -0.0152,0.0441 -0.0825,0.26725 -0.0937,0.3125 -0.0112,0.0453 -0.0553,0.23518 -0.0625,0.28125 -0.007,0.0461 -0.0281,0.26598 -0.0312,0.3125 -0.003,0.0419 1e-4,0.21271 0,0.28125 -1e-5,0.008 -1e-4,0.0266 0,0.0312 l 0,13.1875 c 1.3e-4,0.026 -0.001,0.1615 0,0.1875 0.001,0.026 0.0286,0.13035 0.0312,0.15625 0.003,0.0259 -0.004,0.13051 0,0.15625 0.004,0.0257 0.026,0.16199 0.0312,0.1875 0.005,0.0255 0.056,0.13103 0.0625,0.15625 0.007,0.0252 0.0236,0.13137 0.0312,0.15625 0.008,0.0249 0.0536,0.13178 0.0625,0.15625 0.009,0.0245 0.0524,0.13225 0.0625,0.15625 0.0101,0.024 0.0512,0.13278 0.0625,0.15625 0.0113,0.0235 0.0813,0.13336 0.0937,0.15625 0.0124,0.0229 0.049,0.134 0.0625,0.15625 0.0135,0.0223 0.0791,0.13469 0.0937,0.15625 0.0146,0.0216 0.0781,0.10418 0.0937,0.125 0.0157,0.0208 0.10835,0.10498 0.125,0.125 0.0167,0.02 0.0761,0.10582 0.0937,0.125 0.0176,0.0192 0.10646,0.10671 0.125,0.125 l 23.71875,23.71875 c 0.0184,0.0183 0.10574,0.10757 0.125,0.125 0.0193,0.0174 0.10491,0.0773 0.125,0.0937 0.0201,0.0165 0.10412,0.10954 0.125,0.125 0.0209,0.0155 0.13464,0.0793 0.15625,0.0937 0.0216,0.0144 0.10271,0.0804 0.125,0.0937 0.0223,0.0133 0.13333,0.0503 0.15625,0.0625 0.0229,0.0122 0.13276,0.0827 0.15625,0.0937 0.0235,0.0111 0.13224,0.0526 0.15625,0.0625 0.024,0.01 0.13178,0.0538 0.15625,0.0625 0.0245,0.009 0.13138,0.055 0.15625,0.0625 0.0249,0.007 0.13105,0.0249 0.15625,0.0312 0.0252,0.006 0.13077,0.0262 0.15625,0.0312 0.0255,0.005 0.1618,0.0274 0.1875,0.0312 0.0257,0.004 0.13039,0.0287 0.15625,0.0312 0.0259,0.002 0.16155,-0.001 0.1875,0 0.0259,0.001 0.13027,0 0.15625,0 0.026,0 0.1303,0.001 0.15625,0 0.0259,-0.001 0.16164,0.002 0.1875,0 0.0259,-0.002 0.13055,-0.0274 0.15625,-0.0312 0.0257,-0.004 0.16202,-0.0262 0.1875,-0.0312 0.0255,-0.005 0.13105,-0.0249 0.15625,-0.0312 0.0252,-0.006 0.13138,-0.0237 0.15625,-0.0312 0.0249,-0.007 0.13178,-0.0538 0.15625,-0.0625 0.0245,-0.009 0.13224,-0.0526 0.15625,-0.0625 0.024,-0.01 0.13276,-0.0514 0.15625,-0.0625 0.0235,-0.0111 0.13333,-0.0815 0.15625,-0.0937 0.0229,-0.0122 0.13396,-0.0492 0.15625,-0.0625 0.0223,-0.0133 0.10339,-0.0793 0.125,-0.0937 0.0216,-0.0144 0.13537,-0.0783 0.15625,-0.0937 0.0209,-0.0155 0.10491,-0.10853 0.125,-0.125 0.0201,-0.0165 0.10574,-0.0763 0.125,-0.0937 0.0193,-0.0174 0.10662,-0.10665 0.125,-0.125 l 13.21875,-13.21875 c 0.01837,-0.0184 0.107558,-0.10574 0.125,-0.125 0.01744,-0.0193 0.07727,-0.10491 0.09375,-0.125 0.01648,-0.0201 0.109529,-0.10413 0.125,-0.125 0.01547,-0.0209 0.07932,-0.13464 0.09375,-0.15625 0.01443,-0.0216 0.0804,-0.10271 0.09375,-0.125 0.01335,-0.0223 0.05026,-0.13334 0.0625,-0.15625 0.01224,-0.0229 0.08265,-0.13276 0.09375,-0.15625 0.0111,-0.0235 0.05256,-0.13225 0.0625,-0.15625 0.0099,-0.024 0.05375,-0.13179 0.0625,-0.15625 0.0087,-0.0245 0.05496,-0.13139 0.0625,-0.15625 0.0075,-0.0249 0.02494,-0.13105 0.03125,-0.15625 0.0063,-0.0252 0.02618,-0.13077 0.03125,-0.15625 0.0051,-0.0255 0.02744,-0.16181 0.03125,-0.1875 0.0038,-0.0257 0.02871,-0.1304 0.03125,-0.15625 0.0025,-0.0258 -0.0013,-0.16156 0,-0.1875 0.0013,-0.0259 0,-0.13027 0,-0.15625 0,-0.026 0.0013,-0.13031 0,-0.15625 -0.0013,-0.0259 0.0025,-0.16165 0,-0.1875 -0.0025,-0.0258 -0.02744,-0.13056 -0.03125,-0.15625 -0.0038,-0.0257 -0.02618,-0.16202 -0.03125,-0.1875 -0.0051,-0.0255 -0.02494,-0.13105 -0.03125,-0.15625 -0.0063,-0.0252 -0.02371,-0.13139 -0.03125,-0.15625 -0.0075,-0.0249 -0.05375,-0.13179 -0.0625,-0.15625 -0.0087,-0.0245 -0.05256,-0.13225 -0.0625,-0.15625 -0.0099,-0.024 -0.0514,-0.13276 -0.0625,-0.15625 -0.0111,-0.0235 -0.08151,-0.13334 -0.09375,-0.15625 -0.01224,-0.0229 -0.04915,-0.13396 -0.0625,-0.15625 -0.01335,-0.0223 -0.07932,-0.10339 -0.09375,-0.125 -0.01443,-0.0216 -0.07828,-0.13538 -0.09375,-0.15625 -0.01547,-0.0209 -0.108524,-0.10491 -0.125,-0.125 -0.01648,-0.0201 -0.07631,-0.10574 -0.09375,-0.125 -0.01744,-0.0193 -0.106634,-0.10662 -0.125,-0.125 l -23.71875,-23.71875 c -0.0183,-0.0185 -0.10581,-0.10738 -0.125,-0.125 -0.0192,-0.0176 -0.10497,-0.0771 -0.125,-0.0937 -0.02,-0.0166 -0.10418,-0.10935 -0.125,-0.125 -0.0208,-0.0157 -0.10343,-0.0791 -0.125,-0.0937 -0.0216,-0.0146 -0.13399,-0.0802 -0.15625,-0.0937 -0.0223,-0.0135 -0.13335,-0.0501 -0.15625,-0.0625 -0.0229,-0.0124 -0.13277,-0.0825 -0.15625,-0.0937 -0.0235,-0.0113 -0.13224,-0.0524 -0.15625,-0.0625 -0.024,-0.0101 -0.13177,-0.0536 -0.15625,-0.0625 -0.0245,-0.009 -0.13136,-0.0548 -0.15625,-0.0625 -0.0249,-0.008 -0.13101,-0.0248 -0.15625,-0.0312 -0.0252,-0.007 -0.13073,-0.0573 -0.15625,-0.0625 -0.0255,-0.005 -0.16175,-0.0273 -0.1875,-0.0312 -0.0258,-0.004 -0.13034,0.003 -0.15625,0 -0.0259,-0.003 -0.13023,-0.0298 -0.15625,-0.0312 -0.026,-10e-4 -0.16145,1.4e-4 -0.1875,0 l -13.125,0 c -0.0147,-10e-4 -0.0572,0.002 -0.0937,0 -0.0854,-0.005 -0.18422,0 -0.21875,0 -0.0493,0 -0.29464,-0.005 -0.34375,0 z m 8.53125,7.875 c 1.98263,0 3.5625,1.58046 3.5625,3.5625 0,1.98205 -1.57987,3.5625 -3.5625,3.5625 -1.98263,0 -3.5625,-1.58045 -3.5625,-3.5625 0,-1.98204 1.57987,-3.5625 3.5625,-3.5625 z m -12.59375,20.125 a 0.93179966,0.93179966 0 0 0 -0.84375,0.9375 l 0,7.0625 -7.0625,0 a 0.93179966,0.93179966 0 0 0 -0.9375,0.9375 l 0,8 a 0.93179966,0.93179966 0 0 0 0.9375,0.9375 l 7.0625,0 0,7.0625 a 0.93179966,0.93179966 0 0 0 0.9375,0.9375 l 8,0 a 0.93179966,0.93179966 0 0 0 0.9375,-0.9375 l 0,-7.0625 7.0625,0 a 0.93179966,0.93179966 0 0 0 0.9375,-0.9375 l 0,-8 a 0.93179966,0.93179966 0 0 0 -0.9375,-0.9375 l -7.0625,0 0,-7.0625 a 0.93179966,0.93179966 0 0 0 -0.9375,-0.9375 l -8,0 a 0.93179966,0.93179966 0 0 0 -0.0937,0 z"
         inkscape:connector-curvature="0" />
      <path
         style="display:inline;opacity:0.3;fill:#4d4d4d;fill-opacity:1;stroke:none"
         id="path3922"
         inkscape:connector-curvature="0"
         d="m -135.92589,103.70229 a 2.5207713,2.5201491 0 0 0 -2.0625,2.53125 l 0,13.21875 a 2.5207713,2.5201491 0 0 0 0.75,1.78125 l 23.71875,23.71875 a 2.5207713,2.5201491 0 0 0 3.5625,0 l 13.21875,-13.21875 a 2.5207713,2.5201491 0 0 0 0,-3.5625 l -23.71875,-23.71875 a 2.5207713,2.5201491 0 0 0 -1.78125,-0.75 l -13.21875,0 a 2.5207713,2.5201491 0 0 0 -0.46875,0 z m 8.4375,6 c 2.48599,0 4.5,2.01462 4.5,4.5 0,2.48538 -2.01401,4.5 -4.5,4.5 -2.48599,0 -4.5,-2.01462 -4.5,-4.5 0,-2.48538 2.01401,-4.5 4.5,-4.5 z m -12.5,22 0,8 -8,0 0,8 8,0 0,8 8,0 0,-8 8,0 0,-8 -8,0 0,-8 -8,0 z" />
      <g
         style="fill:#4d4d4d"
         id="g4395">
        <path
           d="m -135.92589,102.70229 a 2.5207713,2.5201491 0 0 0 -2.0625,2.53125 l 0,0.71875 a 2.5207713,2.5201491 0 0 1 2.0625,-2.25 2.5207713,2.5201491 0 0 1 0.46875,0 l 13.21875,0 a 2.5207713,2.5201491 0 0 1 1.78125,0.75 l 23.71875,23.71875 a 2.5207713,2.5201491 0 0 1 0.6875,1.25 2.5207713,2.5201491 0 0 0 -0.6875,-2.25 l -23.71875,-23.71875 a 2.5207713,2.5201491 0 0 0 -1.78125,-0.75 l -13.21875,0 a 2.5207713,2.5201491 0 0 0 -0.46875,0 z m 4,11 c -0.0187,0.16678 -0.0625,0.32822 -0.0625,0.5 0,2.48538 2.01401,4.5 4.5,4.5 2.48599,0 4.5,-2.01462 4.5,-4.5 0,-0.17178 -0.0438,-0.33322 -0.0625,-0.5 -0.25231,2.24616 -2.12333,4 -4.4375,4 -2.31417,0 -4.18519,-1.75384 -4.4375,-4 z m -8.0625,17 0,1 8,0 0,-1 -8,0 z m -8,8 0,1 8,0 0,-1 -8,0 z m 16,0 0,1 8,0 0,-1 -8,0 z"
           inkscape:connector-curvature="0"
           id="path3136"
           style="display:inline;opacity:0.75;fill:#4d4d4d;fill-opacity:1;stroke:none" />
        <path
           d="m -135.92589,102.70229 a 2.5207713,2.5201491 0 0 0 -2.0625,2.53125 l 0,13.21875 a 2.5207713,2.5201491 0 0 0 0.75,1.78125 l 23.71875,23.71875 a 2.5207713,2.5201491 0 0 0 3.5625,0 l 13.21875,-13.21875 a 2.5207713,2.5201491 0 0 0 0,-3.5625 l -23.71875,-23.71875 a 2.5207713,2.5201491 0 0 0 -1.78125,-0.75 l -13.21875,0 a 2.5207713,2.5201491 0 0 0 -0.46875,0 z m 8.4375,6 c 2.48599,0 4.5,2.01462 4.5,4.5 0,2.48538 -2.01401,4.5 -4.5,4.5 -2.48599,0 -4.5,-2.01462 -4.5,-4.5 0,-2.48538 2.01401,-4.5 4.5,-4.5 z m -12.5,22 0,8 -8,0 0,8 8,0 0,8 8,0 0,-8 8,0 0,-8 -8,0 0,-8 -8,0 z"
           inkscape:connector-curvature="0"
           id="path3102"
           style="display:inline;fill:#4d4d4d;fill-opacity:1;stroke:none" />
        <path
           d="m -127.48839,107.70229 c -2.48599,0 -4.5,2.01462 -4.5,4.5 0,0.17179 0.0438,0.33323 0.0625,0.5 0.25231,-2.24615 2.12333,-4 4.4375,-4 2.31417,0 4.18519,1.75385 4.4375,4 0.0187,-0.16677 0.0625,-0.32821 0.0625,-0.5 0,-2.48538 -2.01401,-4.5 -4.5,-4.5 z m -10.5,10 0,0.75 a 2.5207713,2.5201491 0 0 0 0.75,1.78125 l 23.71875,23.71875 a 2.5207713,2.5201491 0 0 0 3.5625,0 l 13.21875,-13.21875 a 2.5207713,2.5201491 0 0 0 0.6875,-2.3125 2.5207713,2.5201491 0 0 1 -0.6875,1.3125 l -13.21875,13.21875 a 2.5207713,2.5201491 0 0 1 -3.5625,0 l -23.71875,-23.71875 a 2.5207713,2.5201491 0 0 1 -0.75,-1.53125 z m -10,28 0,1 8,0 0,-1 -8,0 z m 16,0 0,1 8,0 0,-1 -8,0 z m -8,8 0,1 8,0 0,-1 -8,0 z"
           inkscape:connector-curvature="0"
           id="path3913"
           style="display:inline;opacity:0.15;fill:#4d4d4d;fill-opacity:1;stroke:none" />
      </g>
    </g>
  </g>
</svg>
